<?xml version="1.0" standalone="no"?>
<!DOCTYPE svg PUBLIC "-//W3C//DTD SVG 20010904//EN"
 "http://www.w3.org/TR/2001/REC-SVG-20010904/DTD/svg10.dtd">
<svg version="1.0" xmlns="http://www.w3.org/2000/svg"
 width="480.000000pt" height="480.000000pt" viewBox="0 0 480.000000 480.000000"
 preserveAspectRatio="xMidYMid meet">
<metadata>
Created by potrace 1.15, written by Peter Selinger 2001-2017
</metadata>
<g transform="translate(0.000000,480.000000) scale(0.100000,-0.100000)"
fill="#ffffaa" stroke="none">
<path d="M2025 3584 c-16 -2 -79 -9 -140 -15 -458 -45 -753 -176 -1035 -459
-129 -129 -230 -263 -304 -406 -26 -48 -61 -94 -113 -145 -272 -264 -416 -653
-425 -1146 -3 -120 -1 -134 18 -160 31 -41 74 -52 214 -52 195 -1 226 15 250
134 24 116 25 117 70 28 125 -249 362 -396 640 -396 278 0 515 147 640 396 45
89 47 89 71 -34 16 -80 47 -115 110 -124 24 -3 373 -5 776 -3 724 3 732 3 760
24 26 19 41 54 58 128 7 33 16 27 35 -24 23 -61 99 -168 153 -215 111 -97 247
-148 397 -148 164 0 304 58 420 173 114 114 173 258 173 420 0 106 -22 193
-73 287 l-38 72 27 6 c16 3 38 16 49 28 36 39 43 72 32 158 -23 191 -79 320
-179 420 -129 128 -176 138 -987 215 l-62 5 -95 192 c-157 316 -294 501 -408
554 -133 62 -308 84 -689 88 -173 2 -328 1 -345 -1z m590 -234 c148 -13 277
-36 330 -59 48 -21 90 -68 162 -178 59 -91 188 -332 181 -339 -3 -2 -144 5
-314 16 -170 11 -482 29 -694 40 -966 51 -1097 52 -1278 15 -46 -9 -86 -14
-89 -11 -11 11 212 223 287 273 186 124 354 184 635 223 206 29 564 38 780 20z
m-880 -725 c1594 -79 2530 -154 2652 -212 64 -30 123 -115 152 -217 l9 -36
-116 0 c-332 0 -533 -66 -746 -244 -109 -92 -227 -273 -273 -418 l-18 -58
-635 0 -635 0 -18 59 c-91 292 -346 535 -650 620 -159 45 -355 45 -514 0 -216
-60 -415 -204 -538 -389 -48 -73 -111 -206 -121 -259 -5 -21 -12 -31 -25 -31
-24 0 -24 27 -4 187 67 514 290 831 672 958 176 58 311 65 808 40z m-361 -725
c85 -22 210 -83 270 -131 l38 -32 -4 -86 c-6 -106 -33 -180 -96 -264 -150
-198 -437 -246 -648 -109 -68 45 -100 77 -143 147 -44 69 -71 164 -71 245 0
67 1 69 38 99 56 47 183 109 264 131 100 26 250 26 352 0z m2996 -21 c73 -38
123 -92 159 -168 22 -48 26 -69 26 -151 0 -82 -4 -103 -27 -152 -34 -73 -103
-142 -176 -176 -50 -24 -69 -27 -157 -27 -90 0 -105 3 -153 28 -75 40 -124 87
-162 159 -28 53 -35 76 -38 143 -5 94 6 141 50 215 28 47 44 61 105 93 93 48
203 78 266 72 27 -2 74 -18 107 -36z"/>
</g>
</svg>
